# xmcd CD database file
#
# Track frame offsets:
#	150
#	14401
#	32623
#	49556
#	66318
#	84518
#	98431
#	113110
#	129859
#	150303
#
# Disc length: 2189 seconds
#
# Revision: 0
# Processed by: cddbd v1.5.2PL0 Copyright (c) Steve Scherf et al.
# Submitted via: CDex 1.51
#
DISCID=6a088b0a
DTITLE=Adkins, Trace - 10 Great Songs
DYEAR=2012
DGENRE=Country
TTITLE0=Rough and Ready
TTITLE1=(This Ain't) No Thinkin' Thing
TTITLE2=You're Gonna Miss This
TTITLE3=I'm Trying
TTITLE4=Honky TOnk Badonkadonk
TTITLE5=Marry for Money
TTITLE6=Rest of Mine, The
TTITLE7=Ladies Love Country Boys
TTITLE8=Then They Do
TTITLE9=More
EXTD=YEAR: 2012
EXTT0=
EXTT1=
EXTT2=
EXTT3=
EXTT4=
EXTT5=
EXTT6=
EXTT7=
EXTT8=
EXTT9=
PLAYORDER=
